# xmcd CD database file
#
# Track frame offsets:
#	182
#	15962
#	29852
#	44270
#	59947
#	72905
#	85320
#	98737
#	108935
#	124500
#	137842
#	142610
#	156005
#	169640
#	186492
#	198882
#	211415
#	226760
#	241400
#	253255
#	272352
#
# Disc length: 3780 seconds
#
# Revision: 1
# Processed by: cddbd v1.5.2PL0 Copyright (c) Steve Scherf et al.
# Submitted via: CDex 1.51
#
DISCID=230ec215
DTITLE=Groscolas , Pierre - 20 Chansons D'or and 1
DYEAR=1993
DGENRE=Vocal
TTITLE0=Lady Lay (Remix) (1993)
TTITLE1=Au Revoir (1973)
TTITLE2=Fille Du Vent (1971)
TTITLE3=Ma Jeunesse Au Fond De L'eau (1974)
TTITLE4=Elise (1974)
TTITLE5=Le Vieux Monsieur (1972)
TTITLE6=Mamadou (1975)
TTITLE7=Tu Vas Devenir Musicien (1974)
TTITLE8=L'amour Est Roi (1972)
TTITLE9=Vite Vite On Part (1974)
TTITLE10=Ophelie (1972)
TTITLE11=Lady Lay (V.O) (1974)
TTITLE12=Je Retiendrai Le Temps (1972)
TTITLE13=Laisse Moi Tranquille (1975)
TTITLE14=L'enfant Qui Touchai Les Etoiles (1972)
TTITLE15=C'est Facile A Dire (1974)
TTITLE16=Un Jour Pas Comme Les Autres (1973)
TTITLE17=Pour Faire Un Enfant (1972)
TTITLE18=L'oiseau Magique (1972)
TTITLE19=Une Chanson D'amour (1976)
TTITLE20=Qu'as Tu Fais De Ma Vie
EXTD=YEAR: 1993
EXTT0=
EXTT1=
EXTT2=
EXTT3=
EXTT4=
EXTT5=
EXTT6=
EXTT7=
EXTT8=
EXTT9=
EXTT10=
EXTT11=
EXTT12=
EXTT13=
EXTT14=
EXTT15=
EXTT16=
EXTT17=
EXTT18=
EXTT19=
EXTT20=
PLAYORDER=
